{
	"asset":{
		"generator":"Khronos glTF Blender I/O v4.0.44",
		"version":"2.0"
	},
	"scene":0,
	"scenes":[
		{
			"name":"Scene",
			"nodes":[
				0,
				1,
				2
			]
		}
	],
	"nodes":[
		{
			"mesh":0,
			"name":"Donut"
		},
		{
			"mesh":1,
			"name":"Icing"
		},
		{
			"mesh":2,
			"name":"Plane",
			"translation":[
				-0.3753539025783539,
				-0.02353394776582718,
				0.44060805439949036
			]
		}
	],
	"materials":[
		{
			"doubleSided":true,
			"name":"Material.002",
			"pbrMetallicRoughness":{
				"baseColorFactor":[
					0.8000156879425049,
					0.37739941477775574,
					0.10720210522413254,
					1
				],
				"metallicFactor":0,
				"roughnessFactor":0.5
			}
		},
		{
			"doubleSided":true,
			"name":"Material.001",
			"pbrMetallicRoughness":{
				"baseColorFactor":[
					0.8000074625015259,
					0.15816229581832886,
					0.6607480645179749,
					1
				],
				"metallicFactor":0,
				"roughnessFactor":0.1513761579990387
			}
		}
	],
	"meshes":[
		{
			"name":"Torus.001",
			"primitives":[
				{
					"attributes":{
						"POSITION":0,
						"NORMAL":1,
						"TEXCOORD_0":2
					},
					"indices":3,
					"material":0
				}
			]
		},
		{
			"name":"Torus.002",
			"primitives":[
				{
					"attributes":{
						"POSITION":4,
						"NORMAL":5,
						"TEXCOORD_0":6
					},
					"indices":7,
					"material":1
				}
			]
		},
		{
			"name":"Plane",
			"primitives":[
				{
					"attributes":{
						"POSITION":8,
						"NORMAL":9,
						"TEXCOORD_0":10
					},
					"indices":11
				}
			]
		}
	],
	"accessors":[
		{
			"bufferView":0,
			"componentType":5126,
			"count":10465,
			"max":[
				0.0485290102660656,
				0.021436311304569244,
				0.04804263636469841
			],
			"min":[
				-0.048446837812662125,
				-0.019638724625110626,
				-0.04919368028640747
			],
			"type":"VEC3"
		},
		{
			"bufferView":1,
			"componentType":5126,
			"count":10465,
			"type":"VEC3"
		},
		{
			"bufferView":2,
			"componentType":5126,
			"count":10465,
			"type":"VEC2"
		},
		{
			"bufferView":3,
			"componentType":5123,
			"count":61440,
			"type":"SCALAR"
		},
		{
			"bufferView":4,
			"componentType":5126,
			"count":11012,
			"max":[
				0.0491177923977375,
				0.024915840476751328,
				0.05112205818295479
			],
			"min":[
				-0.04885002225637436,
				-0.011414268985390663,
				-0.0506279356777668
			],
			"type":"VEC3"
		},
		{
			"bufferView":5,
			"componentType":5126,
			"count":11012,
			"type":"VEC3"
		},
		{
			"bufferView":6,
			"componentType":5126,
			"count":11012,
			"type":"VEC2"
		},
		{
			"bufferView":7,
			"componentType":5123,
			"count":65664,
			"type":"SCALAR"
		},
		{
			"bufferView":8,
			"componentType":5126,
			"count":4,
			"max":[
				1,
				0,
				1
			],
			"min":[
				-1,
				0,
				-1
			],
			"type":"VEC3"
		},
		{
			"bufferView":9,
			"componentType":5126,
			"count":4,
			"type":"VEC3"
		},
		{
			"bufferView":10,
			"componentType":5126,
			"count":4,
			"type":"VEC2"
		},
		{
			"bufferView":11,
			"componentType":5123,
			"count":6,
			"type":"SCALAR"
		}
	],
	"bufferViews":[
		{
			"buffer":0,
			"byteLength":125580,
			"byteOffset":0,
			"target":34962
		},
		{
			"buffer":0,
			"byteLength":125580,
			"byteOffset":125580,
			"target":34962
		},
		{
			"buffer":0,
			"byteLength":83720,
			"byteOffset":251160,
			"target":34962
		},
		{
			"buffer":0,
			"byteLength":122880,
			"byteOffset":334880,
			"target":34963
		},
		{
			"buffer":0,
			"byteLength":132144,
			"byteOffset":457760,
			"target":34962
		},
		{
			"buffer":0,
			"byteLength":132144,
			"byteOffset":589904,
			"target":34962
		},
		{
			"buffer":0,
			"byteLength":88096,
			"byteOffset":722048,
			"target":34962
		},
		{
			"buffer":0,
			"byteLength":131328,
			"byteOffset":810144,
			"target":34963
		},
		{
			"buffer":0,
			"byteLength":48,
			"byteOffset":941472,
			"target":34962
		},
		{
			"buffer":0,
			"byteLength":48,
			"byteOffset":941520,
			"target":34962
		},
		{
			"buffer":0,
			"byteLength":32,
			"byteOffset":941568,
			"target":34962
		},
		{
			"buffer":0,
			"byteLength":12,
			"byteOffset":941600,
			"target":34963
		}
	],
	"buffers":[
		{
			"byteLength":941612,
			"uri":"Donut.bin"
		}
	]
}
